# Blender v2.79 (sub 0) OBJ File: ''
# www.blender.org
o Cone_Cone.001
v 0.000000 -1.000000 1.000000
v -0.195090 -1.000000 0.980785
v -0.382683 -1.000000 0.923880
v -0.555570 -1.000000 0.831470
v -0.707107 -1.000000 0.707107
v -0.831470 -1.000000 0.555570
v -0.923880 -1.000000 0.382683
v -0.980785 -1.000000 0.195090
v -1.000000 -1.000000 0.000000
v -0.980785 -1.000000 -0.195090
v -0.923880 -1.000000 -0.382683
v -0.831470 -1.000000 -0.555570
v -0.707107 -1.000000 -0.707107
v -0.555570 -1.000000 -0.831470
v -0.382683 -1.000000 -0.923880
v -0.195090 -1.000000 -0.980785
v 0.000000 -1.000000 -1.000000
v 0.195091 -1.000000 -0.980785
v 0.382684 -1.000000 -0.923879
v 0.555571 -1.000000 -0.831469
v 0.707107 -1.000000 -0.707106
v 0.831470 -1.000000 -0.555570
v 0.923880 -1.000000 -0.382683
v 0.000000 1.000000 0.000000
v 0.980785 -1.000000 -0.195089
v 1.000000 -1.000000 0.000001
v 0.980785 -1.000000 0.195091
v 0.923879 -1.000000 0.382684
v 0.831469 -1.000000 0.555571
v 0.707106 -1.000000 0.707108
v 0.555569 -1.000000 0.831470
v 0.382682 -1.000000 0.923880
v 0.195089 -1.000000 0.980786
vt 0.500000 0.000000
vt 0.500000 1.000000
vt 0.597545 0.000000
vt 0.691342 0.000000
vt 0.777785 0.000000
vt 0.853553 0.000000
vt 0.777785 0.000000
vt 0.691342 0.000000
vt 0.597545 0.000000
vt 0.500000 0.000000
vt 0.402455 0.000000
vt 0.308658 0.000000
vt 0.222215 0.000000
vt 0.146447 0.000000
vt 0.853553 0.000000
vt 0.777785 0.000000
vt 0.691342 0.000000
vt 0.597545 0.000000
vt 0.500000 0.000000
vt 0.402455 0.000000
vt 0.308658 0.000000
vt 0.222215 0.000000
vt 0.146446 0.000000
vt 0.222215 0.000000
vt 0.308659 0.000000
vt 0.402455 0.000000
vt 0.500000 0.000000
vt 0.597546 0.000000
vt 0.691342 0.000000
vt 0.777786 0.000000
vt 0.853554 0.000000
vt 0.146447 0.000000
vt 0.222215 0.000000
vt 0.308659 0.000000
vt 0.402456 0.000000
vt 0.597545 -0.009607
vt 0.691342 -0.038060
vt 0.777785 -0.084265
vt 0.853553 -0.146447
vt 0.915735 -0.222215
vt 0.961940 -0.308658
vt 0.990393 -0.402455
vt 1.000000 -0.500000
vt 0.990393 -0.597545
vt 0.961940 -0.691342
vt 0.915735 -0.777785
vt 0.853553 -0.853553
vt 0.777785 -0.915735
vt 0.691342 -0.961940
vt 0.597545 -0.990393
vt 0.500000 -1.000000
vt 0.402455 -0.990393
vt 0.308658 -0.961940
vt 0.222215 -0.915735
vt 0.146446 -0.853553
vt 0.084265 -0.777785
vt 0.038060 -0.691341
vt 0.009607 -0.597545
vt 0.000000 -0.500000
vt 0.009607 -0.402454
vt 0.038060 -0.308658
vt 0.084266 -0.222214
vt 0.146447 -0.146446
vt 0.222215 -0.084265
vt 0.308659 -0.038060
vt 0.402456 -0.009607
vn -0.0878 0.4455 0.8910
vn -0.2599 0.4455 0.8567
vn -0.4220 0.4455 0.7896
vn -0.5680 0.4455 0.6921
vn -0.6921 0.4455 0.5680
vn -0.7896 0.4455 0.4220
vn -0.8567 0.4455 0.2599
vn -0.8910 0.4455 0.0878
vn -0.8910 0.4455 -0.0878
vn -0.8567 0.4455 -0.2599
vn -0.7896 0.4455 -0.4220
vn -0.6921 0.4455 -0.5680
vn -0.5680 0.4455 -0.6921
vn -0.4220 0.4455 -0.7896
vn -0.2599 0.4455 -0.8567
vn -0.0878 0.4455 -0.8910
vn 0.0878 0.4455 -0.8910
vn 0.2599 0.4455 -0.8567
vn 0.4220 0.4455 -0.7896
vn 0.5680 0.4455 -0.6921
vn 0.6921 0.4455 -0.5680
vn 0.7896 0.4455 -0.4220
vn 0.8567 0.4455 -0.2599
vn 0.8910 0.4455 -0.0878
vn 0.8910 0.4455 0.0878
vn 0.8567 0.4455 0.2599
vn 0.7896 0.4455 0.4220
vn 0.6921 0.4455 0.5680
vn 0.5680 0.4455 0.6921
vn 0.4220 0.4455 0.7896
vn 0.2599 0.4455 0.8567
vn 0.0878 0.4455 0.8910
vn 0.0000 -1.0000 0.0000
s off
f 1/1/1 24/2/1 2/3/1
f 2/3/2 24/2/2 3/4/2
f 3/4/3 24/2/3 4/5/3
f 4/5/4 24/2/4 5/6/4
f 5/6/5 24/2/5 6/7/5
f 6/7/6 24/2/6 7/8/6
f 7/8/7 24/2/7 8/9/7
f 8/9/8 24/2/8 9/10/8
f 9/10/9 24/2/9 10/11/9
f 10/11/10 24/2/10 11/12/10
f 11/12/11 24/2/11 12/13/11
f 12/13/12 24/2/12 13/14/12
f 13/15/13 24/2/13 14/16/13
f 14/16/14 24/2/14 15/17/14
f 15/17/15 24/2/15 16/18/15
f 16/18/16 24/2/16 17/19/16
f 17/19/17 24/2/17 18/20/17
f 18/20/18 24/2/18 19/21/18
f 19/21/19 24/2/19 20/22/19
f 20/22/20 24/2/20 21/23/20
f 21/23/21 24/2/21 22/24/21
f 22/24/22 24/2/22 23/25/22
f 23/25/23 24/2/23 25/26/23
f 25/26/24 24/2/24 26/27/24
f 26/27/25 24/2/25 27/28/25
f 27/28/26 24/2/26 28/29/26
f 28/29/27 24/2/27 29/30/27
f 29/30/28 24/2/28 30/31/28
f 30/32/29 24/2/29 31/33/29
f 31/33/30 24/2/30 32/34/30
f 32/34/31 24/2/31 33/35/31
f 33/35/32 24/2/32 1/1/32
f 1/1/33 2/36/33 3/37/33 4/38/33 5/39/33 6/40/33 7/41/33 8/42/33 9/43/33 10/44/33 11/45/33 12/46/33 13/47/33 14/48/33 15/49/33 16/50/33 17/51/33 18/52/33 19/53/33 20/54/33 21/55/33 22/56/33 23/57/33 25/58/33 26/59/33 27/60/33 28/61/33 29/62/33 30/63/33 31/64/33 32/65/33 33/66/33
